<svg width="20" height="20" viewBox="0 0 20 20" fill="none" xmlns="http://www.w3.org/2000/svg">
<path d="M19.9191 8.12699C19.9383 7.9969 19.9317 7.86428 19.8997 7.73674C19.8676 7.6092 19.8107 7.48923 19.7322 7.38371C19.6537 7.27819 19.5552 7.18919 19.4423 7.1218C19.3293 7.05441 19.2042 7.00996 19.0741 6.99099L13.4231 6.16499L10.8971 1.01799C10.8059 0.860667 10.6749 0.730082 10.5174 0.639336C10.3598 0.548591 10.1811 0.500875 9.99928 0.500977C9.81744 0.501078 9.63883 0.548992 9.48135 0.639913C9.32388 0.730834 9.19308 0.861566 9.10207 1.01899L6.57707 6.16499L0.926073 6.99099C0.741618 7.01779 0.568322 7.0956 0.425741 7.21565C0.28316 7.3357 0.176969 7.49321 0.119152 7.67041C0.061334 7.84761 0.0541905 8.03744 0.0985276 8.21848C0.142865 8.39952 0.236917 8.56457 0.370072 8.69499L4.46307 12.708L3.49707 18.372C3.46654 18.5558 3.48787 18.7445 3.55868 18.9169C3.62949 19.0893 3.74696 19.2385 3.89791 19.3478C4.04885 19.4571 4.22728 19.5221 4.41315 19.5356C4.59902 19.549 4.78496 19.5104 4.95007 19.424L10.0001 16.754L15.0491 19.423C15.214 19.5103 15.4 19.5497 15.5862 19.5368C15.7723 19.5239 15.9512 19.4592 16.1024 19.3499C16.2537 19.2407 16.3714 19.0913 16.4422 18.9186C16.513 18.746 16.5341 18.557 16.5031 18.373L15.5371 12.708L19.6311 8.69399C19.7862 8.54137 19.8873 8.3423 19.9191 8.12699ZM14.6501 12.177C14.5925 12.2336 14.5495 12.3032 14.5246 12.38C14.4997 12.4568 14.4937 12.5384 14.5071 12.618L15.5171 18.539L10.2331 15.746C10.1611 15.7086 10.0812 15.689 10.0001 15.689C9.91896 15.689 9.83904 15.7086 9.76707 15.746L4.48307 18.54L5.49307 12.618C5.50644 12.5384 5.50042 12.4568 5.47553 12.38C5.45064 12.3032 5.4076 12.2336 5.35007 12.177L1.07007 7.97999L6.98207 7.11599C7.06245 7.10402 7.13874 7.07275 7.20439 7.02486C7.27005 6.97696 7.32312 6.91388 7.35907 6.84099L10.0001 1.45999L12.6401 6.84199C12.6761 6.915 12.7293 6.97817 12.7952 7.02607C12.861 7.07397 12.9375 7.10517 13.0181 7.11699L18.9311 7.97999L14.6501 12.177Z" fill="#FFD600"/>
</svg>
